<svg width="1408" height="172" viewBox="0 0 1408 172" fill="none" xmlns="http://www.w3.org/2000/svg">
<path d="M1346.45 83.8457L1382.29 138.415L1390.29 134.534C1387.55 127.456 1382.98 103.482 1382.98 79.2792L1383.21 5.07373H1402.39V164.901H1379.1L1327.04 88.1839L1289.82 31.1027L1282.06 34.9842C1285.71 44.3455 1289.37 67.178 1289.37 93.892L1290.05 164.901H1270.64L1270.42 5.07373H1293.93L1346.45 83.8457Z" fill="url(#paint0_linear_6279_7630)"/>
<path d="M1171.07 168.097C1125.63 168.097 1093.67 135.447 1093.67 85.2156C1093.67 35.6693 1123.12 3.01897 1170.84 3.01897C1210.8 3.01897 1236.83 25.6231 1244.13 61.0133H1223.58C1218.33 40.0075 1201.66 20.8282 1170.84 20.8282C1131.57 20.8282 1114.22 51.4237 1114.22 85.2156C1114.22 119.236 1132.25 150.288 1171.75 150.288C1213.31 150.288 1223.13 119.464 1223.13 100.057H1160.57V82.9324H1241.85V164.901H1224.95C1224.95 156.909 1226.78 141.612 1230.43 132.022H1222.21C1218.56 142.068 1206.69 168.097 1171.07 168.097Z" fill="url(#paint1_linear_6279_7630)"/>
<path d="M1051.47 164.901V5.07373H1071.56V164.901H1051.47Z" fill="url(#paint2_linear_6279_7630)"/>
<path d="M969.878 168.097C933.346 168.097 907.773 150.745 904.12 116.039H923.984C927.637 138.644 944.533 150.973 969.649 150.973C992.482 150.973 1010.75 143.895 1010.75 123.346C1010.75 104.395 993.166 98.6868 959.603 92.0654C933.802 86.8139 910.285 75.3977 910.285 45.0305C910.285 14.6634 937.227 1.8772 966.909 1.8772C1003.9 1.8772 1025.59 21.9697 1026.73 51.8802H1006.87C1005.27 31.1027 989.742 19.0015 966.909 19.0015C948.415 19.0015 930.606 28.1345 930.606 45.0305C930.606 62.8398 950.926 71.5162 967.594 74.941C1002.53 81.7908 1031.07 89.0971 1031.07 123.346C1031.07 153.713 1006.41 168.097 969.878 168.097Z" fill="url(#paint3_linear_6279_7630)"/>
<path d="M891.315 164.901H779.208V5.07373H891.315V22.6547H799.528V73.5711H884.465V90.9238H799.528V147.092H891.315V164.901Z" fill="url(#paint4_linear_6279_7630)"/>
<path d="M688.886 164.901H622.903V5.07373H688.886C723.82 5.07373 757.155 34.0709 757.155 84.074C757.155 134.077 723.82 164.901 688.886 164.901ZM643.45 23.1114V147.092H688.886C712.86 147.092 736.378 125.172 736.378 84.074C736.378 42.7472 712.86 23.1114 688.886 23.1114H643.45Z" fill="url(#paint5_linear_6279_7630)"/>
<path d="M538.171 83.8457L574.018 138.415L582.01 134.534C579.27 127.456 574.703 103.482 574.703 79.2792L574.931 5.07373H594.111V164.901H570.822L518.764 88.1839L481.547 31.1027L473.784 34.9842C477.437 44.3455 481.09 67.178 481.09 93.892L481.775 164.901H462.368L462.139 5.07373H485.657L538.171 83.8457Z" fill="url(#paint6_linear_6279_7630)"/>
<path d="M364.321 167.412C317.058 167.412 288.289 135.447 288.289 85.2156C288.289 35.4409 317.058 2.79057 364.321 2.79057C411.355 2.79057 439.896 35.4409 439.896 85.2156C439.896 135.447 411.355 167.412 364.321 167.412ZM364.321 149.375C400.853 149.375 419.347 121.519 419.347 85.2156C419.347 49.1404 400.853 20.8282 364.321 20.8282C327.104 20.8282 308.838 49.1404 308.838 85.2156C308.838 121.519 327.104 149.375 364.321 149.375Z" fill="url(#paint7_linear_6279_7630)"/>
<path d="M274.571 164.901H162.464V5.07373H274.571V22.6547H182.784V73.5711H267.721V90.9238H182.784V147.092H274.571V164.901Z" fill="url(#paint8_linear_6279_7630)"/>
<path d="M77.7324 83.8457L113.579 138.415L121.571 134.534C118.831 127.456 114.264 103.482 114.264 79.2792L114.493 5.07373H133.672V164.901H110.383L58.3246 88.1839L21.1078 31.1027L13.3448 34.9842C16.998 44.3455 20.6511 67.178 20.6511 93.892L21.3361 164.901H1.92852L1.7002 5.07373H25.2176L77.7324 83.8457Z" fill="url(#paint9_linear_6279_7630)"/>
<defs>
<linearGradient id="paint0_linear_6279_7630" x1="703.542" y1="-65.8902" x2="701.303" y2="167.234" gradientUnits="userSpaceOnUse">
<stop stop-color="white"/>
<stop offset="1" stop-color="white" stop-opacity="0"/>
</linearGradient>
<linearGradient id="paint1_linear_6279_7630" x1="703.542" y1="-65.8902" x2="701.303" y2="167.234" gradientUnits="userSpaceOnUse">
<stop stop-color="white"/>
<stop offset="1" stop-color="white" stop-opacity="0"/>
</linearGradient>
<linearGradient id="paint2_linear_6279_7630" x1="703.542" y1="-65.8902" x2="701.303" y2="167.234" gradientUnits="userSpaceOnUse">
<stop stop-color="white"/>
<stop offset="1" stop-color="white" stop-opacity="0"/>
</linearGradient>
<linearGradient id="paint3_linear_6279_7630" x1="703.542" y1="-65.8902" x2="701.303" y2="167.234" gradientUnits="userSpaceOnUse">
<stop stop-color="white"/>
<stop offset="1" stop-color="white" stop-opacity="0"/>
</linearGradient>
<linearGradient id="paint4_linear_6279_7630" x1="703.542" y1="-65.8902" x2="701.303" y2="167.234" gradientUnits="userSpaceOnUse">
<stop stop-color="white"/>
<stop offset="1" stop-color="white" stop-opacity="0"/>
</linearGradient>
<linearGradient id="paint5_linear_6279_7630" x1="703.542" y1="-65.8902" x2="701.303" y2="167.234" gradientUnits="userSpaceOnUse">
<stop stop-color="white"/>
<stop offset="1" stop-color="white" stop-opacity="0"/>
</linearGradient>
<linearGradient id="paint6_linear_6279_7630" x1="703.542" y1="-65.8902" x2="701.303" y2="167.234" gradientUnits="userSpaceOnUse">
<stop stop-color="white"/>
<stop offset="1" stop-color="white" stop-opacity="0"/>
</linearGradient>
<linearGradient id="paint7_linear_6279_7630" x1="703.542" y1="-65.8902" x2="701.303" y2="167.234" gradientUnits="userSpaceOnUse">
<stop stop-color="white"/>
<stop offset="1" stop-color="white" stop-opacity="0"/>
</linearGradient>
<linearGradient id="paint8_linear_6279_7630" x1="703.542" y1="-65.8902" x2="701.303" y2="167.234" gradientUnits="userSpaceOnUse">
<stop stop-color="white"/>
<stop offset="1" stop-color="white" stop-opacity="0"/>
</linearGradient>
<linearGradient id="paint9_linear_6279_7630" x1="703.542" y1="-65.8902" x2="701.303" y2="167.234" gradientUnits="userSpaceOnUse">
<stop stop-color="white"/>
<stop offset="1" stop-color="white" stop-opacity="0"/>
</linearGradient>
</defs>
</svg>
